<?xml version="1.0" standalone="no"?><!DOCTYPE svg PUBLIC "-//W3C//DTD SVG 1.1//EN" "http://www.w3.org/Graphics/SVG/1.1/DTD/svg11.dtd"><svg class="icon" width="19px" height="19.00px" viewBox="0 0 1024 1024" version="1.1" xmlns="http://www.w3.org/2000/svg"><path d="M259.712 330.666667a245.418667 245.418667 0 0 1 483.242667 0h3.712a170.666667 170.666667 0 0 1 169.045333 194.218666 277.376 277.376 0 0 0-487.253333 147.114667H256a170.666667 170.666667 0 0 1 0-341.333333h3.712zM704 938.666667a234.666667 234.666667 0 1 0 0-469.333334 234.666667 234.666667 0 0 0 0 469.333334z m112.896-335.104a21.333333 21.333333 0 0 1 30.208 30.208l-170.666667 170.666666a21.333333 21.333333 0 0 1-30.208 0l-85.333333-85.333333a21.333333 21.333333 0 0 1 30.208-30.208l70.229333 70.272 155.562667-155.605333z" fill="#212121" /></svg>